<svg xmlns="http://www.w3.org/2000/svg" viewBox="0 0 220 220">
  <defs>
    <linearGradient id="bunTop" x1="0" y1="0" x2="0" y2="1">
      <stop offset="0" stop-color="#f7c982"/>
      <stop offset="1" stop-color="#de9c4f"/>
    </linearGradient>
    <linearGradient id="bunBottom" x1="0" y1="0" x2="0" y2="1">
      <stop offset="0" stop-color="#e5ab63"/>
      <stop offset="1" stop-color="#c88745"/>
    </linearGradient>
    <filter id="shadow" x="-20%" y="-20%" width="140%" height="160%">
      <feDropShadow dx="0" dy="3" stdDeviation="3" flood-color="#000" flood-opacity="0.2"/>
    </filter>
  </defs>

  <ellipse cx="110" cy="192" rx="68" ry="12" fill="#000" opacity="0.12"/>
  <g filter="url(#shadow)" stroke="#5b3a1f" stroke-width="3" stroke-linecap="round" stroke-linejoin="round">
    <path d="M45 100c0-28 29-48 65-48s65 20 65 48v8H45z" fill="url(#bunTop)"/>
    <path d="M62 123h96c5 0 8 3 8 8v8H54v-8c0-5 3-8 8-8z" fill="#f1df6e"/>
    <path d="M54 134c8 8 14 9 22 2 9 8 18 7 27 0 9 8 18 8 27 1 8 7 16 8 24-1v10H54z" fill="#6fbf4b"/>
    <rect x="52" y="145" width="116" height="20" rx="10" fill="#7a3f2a"/>
    <rect x="50" y="160" width="120" height="18" rx="9" fill="url(#bunBottom)"/>

    <ellipse cx="79" cy="76" rx="4" ry="2.4" fill="#f6e6bf" stroke="none"/>
    <ellipse cx="97" cy="69" rx="4" ry="2.4" fill="#f6e6bf" stroke="none"/>
    <ellipse cx="118" cy="72" rx="4" ry="2.4" fill="#f6e6bf" stroke="none"/>
    <ellipse cx="137" cy="78" rx="4" ry="2.4" fill="#f6e6bf" stroke="none"/>
  </g>
</svg>
