<svg xmlns="http://www.w3.org/2000/svg" viewBox="0 0 220 220">
  <defs>
    <radialGradient id="frostingBase" cx="34%" cy="24%" r="82%">
      <stop offset="0" stop-color="#f8dde9"/>
      <stop offset="0.42" stop-color="#eeb7cd"/>
      <stop offset="0.78" stop-color="#d290b0"/>
      <stop offset="1" stop-color="#b36d90"/>
    </radialGradient>
    <radialGradient id="frostingShadow" cx="67%" cy="82%" r="66%">
      <stop offset="0" stop-color="#8f4f70" stop-opacity="0.55"/>
      <stop offset="1" stop-color="#8f4f70" stop-opacity="0"/>
    </radialGradient>
    <linearGradient id="wrapperFront" x1="0" y1="0" x2="0.12" y2="1">
      <stop offset="0" stop-color="#8eb8e6"/>
      <stop offset="0.5" stop-color="#5f87c5"/>
      <stop offset="1" stop-color="#3d5f9b"/>
    </linearGradient>
    <linearGradient id="wrapperSide" x1="0" y1="0" x2="1" y2="1">
      <stop offset="0" stop-color="#6f97d0"/>
      <stop offset="1" stop-color="#2f4d83"/>
    </linearGradient>
    <linearGradient id="wrapperTopRim" x1="0" y1="0" x2="0" y2="1">
      <stop offset="0" stop-color="#adc7e9"/>
      <stop offset="1" stop-color="#6f93c3"/>
    </linearGradient>
    <radialGradient id="cherryFill" cx="30%" cy="24%" r="72%">
      <stop offset="0" stop-color="#f37f8f"/>
      <stop offset="0.45" stop-color="#cc2f48"/>
      <stop offset="1" stop-color="#7d1022"/>
    </radialGradient>
    <filter id="softShadow" x="-35%" y="-35%" width="180%" height="200%">
      <feDropShadow dx="0" dy="5" stdDeviation="4.4" flood-color="#000000" flood-opacity="0.22"/>
    </filter>
    <filter id="frostingTexture" x="-20%" y="-20%" width="140%" height="140%">
      <feTurbulence type="fractalNoise" baseFrequency="0.72" numOctaves="2" seed="18" result="noise"/>
      <feColorMatrix in="noise" type="saturate" values="0" result="monoNoise"/>
      <feComponentTransfer in="monoNoise" result="softNoise">
        <feFuncA type="table" tableValues="0 0.04"/>
      </feComponentTransfer>
      <feBlend in="SourceGraphic" in2="softNoise" mode="multiply"/>
    </filter>
    <filter id="paperTexture" x="-15%" y="-15%" width="130%" height="130%">
      <feTurbulence type="fractalNoise" baseFrequency="0.95" numOctaves="1" seed="11" result="paperNoise"/>
      <feColorMatrix in="paperNoise" type="saturate" values="0" result="monoPaper"/>
      <feComponentTransfer in="monoPaper" result="paperAlpha">
        <feFuncA type="table" tableValues="0 0.03"/>
      </feComponentTransfer>
      <feBlend in="SourceGraphic" in2="paperAlpha" mode="multiply"/>
    </filter>
  </defs>

  <ellipse cx="118" cy="195" rx="66" ry="11.5" fill="#000000" opacity="0.12"/>

  <g filter="url(#softShadow)">
    <ellipse cx="112" cy="136" rx="56" ry="14" fill="#8a4f6c" opacity="0.20"/>

    <path
      d="M58 123c0-12 7-22 18-26 3-16 18-30 39-34 29-6 56 7 68 30 14 0 25 6 30 18 7 16 0 34-18 44-17 9-39 12-61 10-22-2-42-10-55-21-14-12-21-25-21-41z"
      fill="url(#frostingBase)"
      filter="url(#frostingTexture)"
    />
    <path
      d="M58 123c0-12 7-22 18-26 3-16 18-30 39-34 29-6 56 7 68 30 14 0 25 6 30 18 7 16 0 34-18 44-17 9-39 12-61 10-22-2-42-10-55-21-14-12-21-25-21-41z"
      fill="url(#frostingShadow)"
      opacity="0.58"
    />

    <path
      d="M80 111c14-11 34-15 53-10 16 4 28 13 38 25"
      fill="none"
      stroke="#f5d3e2"
      stroke-width="2.2"
      stroke-linecap="round"
      opacity="0.72"
    />
    <path
      d="M87 129c16-7 36-7 54-3 14 4 26 11 35 20"
      fill="none"
      stroke="#9b5f7e"
      stroke-width="2.3"
      stroke-linecap="round"
      opacity="0.52"
    />
    <path
      d="M77 145c14-6 32-6 49-2 14 3 25 8 35 16"
      fill="none"
      stroke="#87526e"
      stroke-width="2.1"
      stroke-linecap="round"
      opacity="0.38"
    />

    <ellipse cx="142" cy="62" rx="10.2" ry="10" fill="url(#cherryFill)"/>
    <ellipse cx="138.8" cy="58.6" rx="3" ry="2" fill="#ffffff" opacity="0.70"/>
    <path d="M140 53c1-8.7 7-15 13.2-16.2" fill="none" stroke="#5d8a43" stroke-width="2.8" stroke-linecap="round"/>

    <ellipse cx="92" cy="98" rx="17" ry="7" fill="#fff5f9" opacity="0.56"/>
    <ellipse cx="121" cy="89" rx="13" ry="5.7" fill="#fff2f8" opacity="0.42"/>

    <path
      d="M72 136h97l-15 47H87z"
      fill="url(#wrapperFront)"
      filter="url(#paperTexture)"
    />
    <path
      d="M169 136l12 8-17 46-10-7z"
      fill="url(#wrapperSide)"
    />
    <ellipse cx="120" cy="136" rx="48.5" ry="7.8" fill="url(#wrapperTopRim)" opacity="0.88"/>

    <path d="M86 138v44M98 138v44M110 138v44M122 138v44M134 138v44M146 138v44"
      fill="none"
      stroke="#d9e7f7"
      stroke-opacity="0.60"
      stroke-width="2.1"/>
    <path
      d="M81 146c13-3 29-4 45-3 16 1 31 4 46 10v12c-14-5-30-8-46-9-16-1-32 1-45 5z"
      fill="#ffffff"
      opacity="0.13"
    />
    <path d="M72 136h97" fill="none" stroke="#456ba5" stroke-opacity="0.48" stroke-width="1.4"/>
    <path d="M169 136l12 8" fill="none" stroke="#2f4d83" stroke-opacity="0.6" stroke-width="1.2"/>
  </g>
</svg>
