<svg xmlns="http://www.w3.org/2000/svg" viewBox="0 0 220 220">
  <defs>
    <linearGradient id="rice" x1="0" y1="0" x2="0" y2="1">
      <stop offset="0" stop-color="#ffffff"/>
      <stop offset="1" stop-color="#e9eef2"/>
    </linearGradient>
    <linearGradient id="salmon" x1="0" y1="0" x2="1" y2="1">
      <stop offset="0" stop-color="#ff9f79"/>
      <stop offset="1" stop-color="#f06f54"/>
    </linearGradient>
    <filter id="shadow" x="-20%" y="-20%" width="140%" height="160%">
      <feDropShadow dx="0" dy="3" stdDeviation="3" flood-color="#000" flood-opacity="0.2"/>
    </filter>
  </defs>

  <ellipse cx="110" cy="190" rx="64" ry="11" fill="#000" opacity="0.12"/>
  <g filter="url(#shadow)" stroke="#3a3f45" stroke-width="3" stroke-linecap="round" stroke-linejoin="round">
    <rect x="48" y="108" width="124" height="58" rx="28" fill="url(#rice)"/>
    <path d="M48 114c0-18 14-30 36-30h52c21 0 36 12 36 30v16H48z" fill="url(#salmon)" stroke="#8b3f33"/>
    <path d="M66 94c22 7 44 7 66 0" fill="none" stroke="#ffbea5" stroke-width="3"/>
    <path d="M60 104c26 7 52 7 78 0" fill="none" stroke="#ffbea5" stroke-width="3"/>
    <path d="M54 115c29 7 58 7 87 0" fill="none" stroke="#ffbea5" stroke-width="3"/>

    <circle cx="74" cy="133" r="2" fill="#d8dde3" stroke="none"/>
    <circle cx="91" cy="142" r="2" fill="#d8dde3" stroke="none"/>
    <circle cx="108" cy="137" r="2" fill="#d8dde3" stroke="none"/>
    <circle cx="126" cy="145" r="2" fill="#d8dde3" stroke="none"/>
    <circle cx="143" cy="136" r="2" fill="#d8dde3" stroke="none"/>
  </g>
</svg>
